# xmcd
#
# Track frame offsets:
#        150
#        14452
#        28342
#        41162
#        54435
#        68402
#        81677
#        95487
#        110535
#        125405
#        140030
#        153057
#        167845
#        182012
#        195297
#        209780
#        224390
#        239410
#        253130
#        266990
#        282960
#        297747
#        310875
#        326147
#
# Disc length: 4514 seconds
#
# Revision: 0
# Processed by: cddbd v1.5.1PL0 Copyright (c) Steve Scherf et al.
# Submitted via: ExactAudioCopy v0.95a5
#
DISCID=8011a018
DTITLE=Texas Alexander - Levee Camp Moan Blues
DYEAR=1996
DGENRE=Blues
TTITLE0=Range in My Kitchen Blues
TTITLE1=Long Lonesome Day Blues
TTITLE2=Cornbread Blues
TTITLE3=Section Gang Blues
TTITLE4=Levee Camp Moan Blues
TTITLE5=Mama I Heard You Brought It Right Back Home
TTITLE6=Farm Hand Blues
TTITLE7=Sabine River Blues
TTITLE8=West Texas Blues
TTITLE9=Bantam Rooster Blues
TTITLE10=Bell Cow Blues
TTITLE11=Mama's Bad Luck Child
TTITLE12=Penitentiary Blues
TTITLE13=Tell Me Woman Blues
TTITLE14=Double Crossing Blues
TTITLE15=Ninety-Eight Degree Blues
TTITLE16=Awful Moaning Blues, Pt. 1
TTITLE17=Johnny Behren's Blues
TTITLE18=Broken Yo-Yo
TTITLE19=Days Is Lonesome
TTITLE20=Texas Troublesome blues
TTITLE21=Justice Blues
TTITLE22=Lonesome Blues
TTITLE23=Easy Rider Blues
EXTD=
EXTT0=
EXTT1=
EXTT2=
EXTT3=
EXTT4=
EXTT5=
EXTT6=
EXTT7=
EXTT8=
EXTT9=
EXTT10=
EXTT11=
EXTT12=
EXTT13=
EXTT14=
EXTT15=
EXTT16=
EXTT17=
EXTT18=
EXTT19=
EXTT20=
EXTT21=
EXTT22=
EXTT23=
PLAYORDER=
